<?xml version="1.0" standalone="no"?>
<!DOCTYPE svg PUBLIC "-//W3C//DTD SVG 20010904//EN"
 "http://www.w3.org/TR/2001/REC-SVG-20010904/DTD/svg10.dtd">
<svg version="1.0" xmlns="http://www.w3.org/2000/svg"
 width="512.000000pt" height="512.000000pt" viewBox="0 0 512.000000 512.000000"
 preserveAspectRatio="xMidYMid meet">
<metadata>
Created by potrace 1.11, written by Peter Selinger 2001-2013
</metadata>
<g transform="translate(0.000000,512.000000) scale(0.100000,-0.100000)"
fill="#000000" stroke="none">
<path d="M415 5110 c-197 -41 -349 -188 -400 -385 -13 -52 -15 -307 -15 -2165
0 -2303 -4 -2154 57 -2280 38 -78 151 -189 233 -228 36 -16 92 -35 124 -41 84
-15 4208 -15 4292 0 97 18 180 64 260 143 76 76 114 142 139 242 14 54 15 300
13 2190 l-3 2129 -23 59 c-30 81 -73 144 -135 203 -63 59 -106 86 -183 116
l-59 22 -2130 1 c-1172 1 -2148 -2 -2170 -6z m2535 -1175 c262 -46 431 -143
499 -285 22 -47 26 -68 26 -145 -1 -113 -26 -174 -111 -264 l-59 -62 -88 41
c-49 23 -141 56 -205 73 -111 29 -127 30 -312 31 -182 1 -199 -1 -253 -22
-127 -52 -179 -144 -128 -229 31 -49 95 -80 344 -163 272 -91 306 -104 439
-170 280 -140 424 -295 490 -527 30 -104 32 -334 4 -433 -89 -323 -363 -532
-796 -607 -134 -24 -526 -24 -660 0 -261 45 -455 134 -553 252 -85 103 -107
253 -53 370 28 62 114 159 173 196 l33 20 76 -50 c92 -60 234 -124 341 -152
56 -16 120 -23 231 -26 214 -7 296 10 370 81 46 43 62 77 62 131 0 116 -54
152 -399 270 -341 116 -510 191 -623 276 -140 105 -228 231 -269 386 -29 109
-29 306 -1 414 88 329 373 542 811 604 130 19 481 13 611 -10z"/>
</g>
</svg>
